<svg width="215" height="60" viewBox="0 0 215 60" fill="none" xmlns="http://www.w3.org/2000/svg">
<path d="M78.44 41.49C71.475 41.49 67.87 37.535 67.87 28.75V14.925H74.1V29.415C74.1 34.35 75.57 36.1 78.44 36.1C81.275 36.1 82.85 34.35 82.85 29.415V14.925H88.87V28.75C88.87 37.535 85.37 41.49 78.44 41.49ZM94.2143 41V21.085H99.2893L99.7443 23.57H99.8493C101.494 21.96 103.524 20.595 106.219 20.595C110.559 20.595 112.414 23.71 112.414 28.68V41H106.184V29.45C106.184 26.685 105.449 25.915 103.874 25.915C102.474 25.915 101.634 26.545 100.444 27.7V41H94.2143ZM117.251 41V21.085H123.481V41H117.251ZM120.366 18.32C118.266 18.32 116.901 17.06 116.901 15.1C116.901 13.175 118.266 11.915 120.366 11.915C122.431 11.915 123.831 13.175 123.831 15.1C123.831 17.06 122.431 18.32 120.366 18.32ZM127.727 33.055V28.68H137.632V33.055H127.727ZM142.385 41V14.925H159.01V20.14H148.65V25.845H157.54V31.06H148.65V41H142.385ZM171.057 41.49C165.317 41.49 160.907 37.64 160.907 31.025C160.907 24.585 165.562 20.595 170.357 20.595C176.097 20.595 178.897 24.76 178.897 30.185C178.897 31.305 178.757 32.39 178.617 32.88H166.927C167.487 35.61 169.377 36.73 171.897 36.73C173.332 36.73 174.662 36.31 176.097 35.47L178.162 39.215C176.097 40.685 173.367 41.49 171.057 41.49ZM166.822 28.785H173.612C173.612 26.825 172.737 25.355 170.462 25.355C168.747 25.355 167.242 26.44 166.822 28.785ZM188.826 41.49C186.236 41.49 183.191 40.37 181.161 38.69L183.926 34.805C185.746 36.17 187.391 36.905 188.966 36.905C190.611 36.905 191.311 36.31 191.311 35.33C191.311 34.14 189.386 33.58 187.356 32.775C184.976 31.83 182.281 30.22 182.281 26.895C182.281 23.15 185.326 20.595 189.981 20.595C193.096 20.595 195.406 21.855 197.086 23.15L194.321 26.86C192.886 25.845 191.486 25.18 190.191 25.18C188.756 25.18 188.091 25.67 188.091 26.615C188.091 27.805 189.806 28.26 191.871 28.995C194.356 29.94 197.121 31.375 197.121 34.98C197.121 38.655 194.251 41.49 188.826 41.49ZM207.499 41.49C202.494 41.49 200.464 38.305 200.464 33.615V25.95H197.769V21.33L200.849 21.085L201.549 15.8H206.694V21.085H211.384V25.95H206.694V33.545C206.694 35.75 207.744 36.625 209.214 36.625C209.844 36.625 210.544 36.415 211.034 36.24L212.014 40.755C210.964 41.07 209.529 41.49 207.499 41.49Z" fill="#F5687E"/>
<path d="M1.14258 16.5043C1.14258 10.1506 6.30962 5 12.6835 5L41.0112 5C47.385 5 52.5521 10.1506 52.5521 16.5043L52.5521 44.742C52.5521 51.0957 47.385 56.2463 41.0112 56.2463L12.6835 56.2463C6.30962 56.2463 1.14258 51.0957 1.14258 44.742L1.14258 16.5043Z" fill="url(#paint0_linear_3983_706)"/>
<path fill-rule="evenodd" clip-rule="evenodd" d="M44.4557 32.5815H43.5036V34.4358L42.2139 33.183L41.5842 33.7947L42.8741 35.0477H40.9648V35.9725H42.6708L41.584 37.0283L42.2137 37.64L43.5036 36.387V38.1305H44.4557V36.5841L45.5425 37.6399L46.1722 37.0282L45.0855 35.9725H46.677V35.0477H44.8823L46.1721 33.7948L45.5423 33.183L44.4557 34.2386V32.5815Z" fill="url(#paint1_linear_3983_706)"/>
<path fill-rule="evenodd" clip-rule="evenodd" d="M10.5144 52.9333C9.40063 53.4724 8.1624 52.4709 8.45675 51.269L14.1536 28.0082L15.777 28.4058L10.1858 51.2355L31.3424 40.9957L32.0706 42.5002L10.5144 52.9333Z" fill="white"/>
<path fill-rule="evenodd" clip-rule="evenodd" d="M33.4725 36.7149C33.9307 36.6593 34.3472 36.9857 34.4029 37.4439C34.5734 38.8491 34.3204 40.2078 33.483 41.2904C32.1709 42.987 29.8768 43.4554 27.4842 43.1099C25.0629 42.7602 22.3409 41.5635 19.8558 39.6415C17.3707 37.7196 15.5281 35.3858 14.5809 33.1303C13.6449 30.9014 13.5215 28.5632 14.8336 26.8667C15.509 25.9934 16.4581 25.4397 17.5392 25.1614C17.9862 25.0463 18.4418 25.3154 18.5569 25.7624C18.6719 26.2093 18.4029 26.665 17.9559 26.78C17.167 26.9831 16.5647 27.3604 16.1557 27.8892C15.374 28.8999 15.2944 30.5127 16.1219 32.4831C16.9382 34.4269 18.5786 36.5408 20.8784 38.3194C23.1781 40.0981 25.6366 41.1543 27.7231 41.4556C29.8383 41.7611 31.3792 41.2786 32.1609 40.2679C32.6643 39.617 32.8755 38.7322 32.7436 37.6453C32.688 37.1871 33.0144 36.7706 33.4725 36.7149Z" fill="white"/>
<path d="M29.3772 12.6707C29.3772 14.5636 27.8062 16.098 25.8683 16.098C23.9304 16.098 22.3594 14.5636 22.3594 12.6707C22.3594 10.7779 23.9304 9.24341 25.8683 9.24341C27.8062 9.24341 29.3772 10.7779 29.3772 12.6707Z" fill="url(#paint2_linear_3983_706)"/>
<path d="M29.5059 23.0977L29.4109 18.313C29.4 17.7634 30.0513 17.467 30.4585 17.8361L35.6259 22.5202C36.0462 22.9012 35.7846 23.6 35.2174 23.6112L30.145 23.7119C29.7989 23.7188 29.5127 23.4438 29.5059 23.0977Z" fill="url(#paint3_linear_3983_706)"/>
<path fill-rule="evenodd" clip-rule="evenodd" d="M38.9618 22.0172C39.0983 21.7434 39.4309 21.6321 39.7047 21.7687L43.3739 23.5982C43.6477 23.7347 43.759 24.0673 43.6224 24.3411L43.5006 24.5856C43.4314 24.7243 43.2628 24.7807 43.124 24.7115C42.9852 24.6424 42.8167 24.6988 42.7475 24.8375L41.8907 26.5558C41.8215 26.6946 41.8779 26.8632 42.0167 26.9324C42.1555 27.0017 42.2119 27.1703 42.1427 27.3091L42.0208 27.5535C41.8843 27.8273 41.5517 27.9385 41.2779 27.802L37.6087 25.9725C37.3349 25.836 37.2237 25.5034 37.3602 25.2296L37.482 24.9852C37.5513 24.8464 37.7199 24.79 37.8587 24.8592C37.9975 24.9284 38.1661 24.872 38.2353 24.7332L39.092 23.015C39.1612 22.8761 39.1048 22.7075 38.966 22.6383C38.8272 22.569 38.7707 22.4004 38.84 22.2616L38.9618 22.0172Z" fill="url(#paint4_linear_3983_706)"/>
<path fill-rule="evenodd" clip-rule="evenodd" d="M23.3476 19.7016C23.6735 19.7715 23.8829 20.1017 23.8154 20.439C23.516 21.9348 22.9549 24.313 22.2409 26.6023C21.8839 27.747 21.4859 28.8784 21.0599 29.8702C20.6376 30.8533 20.1724 31.7362 19.6704 32.3579C19.457 32.6222 19.0769 32.6574 18.8216 32.4364C18.5663 32.2155 18.5323 31.822 18.7457 31.5577C19.1406 31.0686 19.552 30.3099 19.9587 29.3632C20.3617 28.4251 20.7449 27.3382 21.094 26.2189C21.7923 23.9799 22.343 21.6462 22.6353 20.1859C22.7028 19.8485 23.0217 19.6317 23.3476 19.7016Z" fill="white" fill-opacity="0.44"/>
<path fill-rule="evenodd" clip-rule="evenodd" d="M29.171 25.7313C29.4307 25.9687 29.4476 26.3705 29.2089 26.6288L23.142 33.1923C22.9033 33.4505 22.4993 33.4674 22.2396 33.23C21.98 32.9925 21.963 32.5907 22.2017 32.3325L28.2687 25.769C28.5074 25.5108 28.9114 25.4939 29.171 25.7313Z" fill="white" fill-opacity="0.44"/>
<path fill-rule="evenodd" clip-rule="evenodd" d="M31.0256 30.5235C29.2708 31.6329 27.641 32.982 26.6832 33.8803C26.4278 34.1197 26.0287 34.1048 25.7916 33.8469C25.5545 33.5891 25.5693 33.1859 25.8246 32.9465C26.8295 32.0041 28.5221 30.6029 30.3561 29.4434C31.2737 28.8633 32.239 28.3358 33.1808 27.9573C34.1159 27.5814 35.0671 27.3362 35.9444 27.3608C36.2927 27.3706 36.5672 27.6637 36.5575 28.0154C36.5478 28.3672 36.2577 28.6444 35.9094 28.6346C35.2727 28.6167 34.5031 28.7972 33.6473 29.1412C32.7981 29.4826 31.9024 29.9692 31.0256 30.5235Z" fill="white" fill-opacity="0.44"/>
<path fill-rule="evenodd" clip-rule="evenodd" d="M41.0938 30.8724C40.1425 31.1024 39.2057 31.4048 38.6392 31.6112C38.314 31.7298 37.9543 31.5622 37.8357 31.237C37.7172 30.9118 37.8847 30.552 38.21 30.4335C38.8131 30.2136 39.7952 29.8967 40.7993 29.654C41.7763 29.4178 42.8719 29.2266 43.6541 29.3221C43.9977 29.3641 44.2423 29.6767 44.2003 30.0203C44.1583 30.3639 43.8458 30.6084 43.5022 30.5665C42.9686 30.5013 42.0723 30.6359 41.0938 30.8724Z" fill="white" fill-opacity="0.44"/>
<path fill-rule="evenodd" clip-rule="evenodd" d="M38.8164 36.3781C34.5537 33.2915 30.785 35.0996 29.465 36.3285C29.2081 36.5677 28.8065 36.5527 28.568 36.2952C28.3295 36.0377 28.3444 35.6351 28.6013 35.3959C30.2431 33.8674 34.6829 31.8152 39.5596 35.3464C39.8438 35.5521 39.9078 35.9499 39.7026 36.2348C39.4973 36.5197 39.1006 36.5838 38.8164 36.3781Z" fill="white" fill-opacity="0.44"/>
<defs>
<linearGradient id="paint0_linear_3983_706" x1="2.45656" y1="6.63726" x2="72.997" y2="85.858" gradientUnits="userSpaceOnUse">
<stop stop-color="#FF8699" stop-opacity="0.960784"/>
<stop offset="0.454051" stop-color="#FF4264"/>
<stop offset="1" stop-color="#EF39FF"/>
</linearGradient>
<linearGradient id="paint1_linear_3983_706" x1="43.8209" y1="32.5815" x2="47.6145" y2="40.5345" gradientUnits="userSpaceOnUse">
<stop stop-color="white"/>
<stop offset="1" stop-color="#FF6AE7"/>
</linearGradient>
<linearGradient id="paint2_linear_3983_706" x1="25.8683" y1="9.24341" x2="25.8683" y2="16.098" gradientUnits="userSpaceOnUse">
<stop stop-color="white"/>
<stop offset="1" stop-color="#FEFFE0"/>
</linearGradient>
<linearGradient id="paint3_linear_3983_706" x1="29.7602" y1="20.6437" x2="38.5778" y2="22.0795" gradientUnits="userSpaceOnUse">
<stop stop-color="white"/>
<stop offset="1" stop-color="#86F8FF"/>
</linearGradient>
<linearGradient id="paint4_linear_3983_706" x1="39.936" y1="21.7233" x2="41.8315" y2="27.9736" gradientUnits="userSpaceOnUse">
<stop stop-color="white"/>
<stop offset="1" stop-color="#BEFFD0"/>
</linearGradient>
</defs>
</svg>
